<?xml version="1.0" encoding="utf-8"?>
<!-- Generator: Adobe Illustrator 24.1.2, SVG Export Plug-In . SVG Version: 6.00 Build 0)  -->
<svg version="1.1" id="Layer_1" xmlns="http://www.w3.org/2000/svg" xmlns:xlink="http://www.w3.org/1999/xlink" x="0px" y="0px"
	 viewBox="0 0 210 210" enable-background="new 0 0 210 210" xml:space="preserve">
<path d="M124.78,86.13H85.15c0.97-3.99,1.66-8.12,2.04-12.3h35.43C123.02,77.96,123.74,82.09,124.78,86.13z M129.03,17.64
	C125.99,7.27,115.87,0.02,104.96,0c-11.51,0-22,8.05-24.39,19.14c-0.87,4.01-0.79,8,0.25,11.84l4.72,17.64
	c1.05,3.92,1.69,8.31,1.94,12.89h34.84c0.24-3.94,0.75-7.71,1.65-11.07l5.21-19.47C130.34,26.68,130.29,21.94,129.03,17.64z
	 M131.34,102.69c-0.79-1.34-1.48-2.8-2.18-4.25H80.85c-0.6,1.25-1.17,2.54-1.85,3.68c-14.95,25.17-17.9,60.67-8.09,85.21l5.97,14.94
	c1.89,4.7,6.37,7.73,11.43,7.73h33.37c5.06,0,9.55-3.04,11.43-7.73l4.55-11.39C148.24,164.47,145.87,127.14,131.34,102.69z
	 M197.92,112.13c-0.27-0.45-0.4-0.94-0.65-1.39h-48.76c10.1,26.06,10.77,59.26,0.58,84.71l-3.89,9.73c3.3,2.95,7.51,4.82,12.17,4.82
	h26.41v0c7.59,0,13.65-4.55,16.48-11.6l3.6-9.01C213.79,164.55,211.58,135.16,197.92,112.13z M170.57,24.61
	c-15.27,0-27.69,12.42-27.69,27.69c0,2.42,0.32,4.83,0.94,7.17l3.84,14.36h45.14l3.85-14.37c0.62-2.33,0.94-4.73,0.94-7.17
	C197.6,37.03,185.84,24.61,170.57,24.61z M191.07,86.13h-41.61c0.05,4.08-0.39,8.19-1.45,12.3h44.53
	C191.54,94.38,190.99,90.27,191.07,86.13z M59.48,191.89c-9.56-23.93-8.42-55.24,1.93-81.15H12.5c-0.28,0.5-0.44,1.05-0.74,1.53
	c-13.82,22.39-15.57,52.83-4.68,80.06l2.43,6.07c2.82,7.04,9.84,11.6,17.43,11.6h26.41c4.41,0,8.41-1.67,11.64-4.34L59.48,191.89z
	 M40.14,24.61c-15.27,0-27.98,12.42-27.98,27.69c0,2.45,0.32,4.87,0.94,7.17l3.85,14.36h46.09l3.85-14.37
	c0.62-2.33,0.94-4.73,0.94-7.17C67.83,37.03,55.41,24.61,40.14,24.61z M62.6,98.43c-0.98-4.01-1.39-8.14-1.3-12.3H18.7
	c0.09,4.16-0.46,8.27-1.44,12.3H62.6z"/>
</svg>
