<?xml version="1.0" encoding="utf-8"?>
<!-- Generator: Adobe Illustrator 24.1.2, SVG Export Plug-In . SVG Version: 6.00 Build 0)  -->
<svg version="1.1" id="Layer_1" xmlns="http://www.w3.org/2000/svg" xmlns:xlink="http://www.w3.org/1999/xlink" x="0px" y="0px"
	 viewBox="0 0 210 210" style="enable-background:new 0 0 210 210;" xml:space="preserve">
<path d="M210,142.4v33.5c0,10-8.2,18.2-18.2,18.2H165c0.7-1.9,1-3.9,1-6.1v-61.4c0-5.1-0.9-10-2.6-14.5h16.2
	C196.4,112.1,210,125.7,210,142.4z M46.6,112.1H30.3C13.6,112.1,0,125.7,0,142.4v33.5c0,10,8.2,18.2,18.2,18.2H45
	c-0.7-1.9-1-3.9-1-6.1v-61.4C44,121.5,44.9,116.6,46.6,112.1z M123.6,96.3H86.4c-16.7,0-30.3,13.6-30.3,30.3V188
	c0,3.3,2.7,6.1,6.1,6.1h85.6c3.3,0,6.1-2.7,6.1-6.1v-61.4C153.9,109.9,140.3,96.3,123.6,96.3z M87.2,84.2c5.3,3,11.3,4.7,17.8,4.7
	c6.5,0,12.5-1.7,17.8-4.7c11.1-6.3,18.6-18.2,18.6-31.8c0-20.1-16.4-36.5-36.5-36.5c-20.1,0-36.5,16.4-36.5,36.5
	C68.5,66,76.1,77.9,87.2,84.2z M65,90c2-3.8,3.2-8.2,3.2-12.8c0-15-12.2-27.3-27.3-27.3c-15,0-27.3,12.2-27.3,27.3
	c0,15,12.2,27.3,27.3,27.3c3.8,0,7.4-0.8,10.7-2.2C57.4,99.8,62.1,95.4,65,90z M196.3,77.2c0-15-12.2-27.3-27.3-27.3
	c-15,0-27.3,12.2-27.3,27.3c0,4.6,1.2,9,3.2,12.8c2.9,5.4,7.6,9.8,13.3,12.2c3.3,1.4,6.9,2.2,10.7,2.2
	C184.1,104.4,196.3,92.2,196.3,77.2z"/>
</svg>
