<?xml version="1.0" encoding="utf-8"?>
<!-- Generator: Adobe Illustrator 24.1.2, SVG Export Plug-In . SVG Version: 6.00 Build 0)  -->
<svg version="1.1" id="Layer_1" xmlns="http://www.w3.org/2000/svg" xmlns:xlink="http://www.w3.org/1999/xlink" x="0px" y="0px"
	 viewBox="0 0 210 182.93" enable-background="new 0 0 210 182.93" xml:space="preserve">
<path d="M25.84,0C11.59,0,0,11.59,0,25.84s11.59,25.84,25.84,25.84s25.84-11.59,25.84-25.84S40.09,0,25.84,0z M25.84,65.62
	C11.59,65.62,0,77.22,0,91.46s11.59,25.84,25.84,25.84s25.84-11.59,25.84-25.84S40.09,65.62,25.84,65.62z M25.84,131.25
	C11.59,131.25,0,142.84,0,157.09s11.59,25.84,25.84,25.84s25.84-11.59,25.84-25.84S40.09,131.25,25.84,131.25z M190.72,6.56H84.9
	c-10.63,0-19.28,8.65-19.28,19.28s8.65,19.28,19.28,19.28h105.82c10.63,0,19.28-8.65,19.28-19.28S201.35,6.56,190.72,6.56z
	 M190.72,72.19H84.9c-10.63,0-19.28,8.65-19.28,19.28s8.65,19.28,19.28,19.28h105.82c10.63,0,19.28-8.65,19.28-19.28
	S201.35,72.19,190.72,72.19z M190.72,137.81H84.9c-10.63,0-19.28,8.65-19.28,19.28s8.65,19.28,19.28,19.28h105.82
	c10.63,0,19.28-8.65,19.28-19.28S201.35,137.81,190.72,137.81z"/>
</svg>
