<?xml version="1.0" encoding="utf-8"?>
<!-- Generator: Adobe Illustrator 24.1.2, SVG Export Plug-In . SVG Version: 6.00 Build 0)  -->
<svg version="1.1" id="Layer_1" xmlns="http://www.w3.org/2000/svg" xmlns:xlink="http://www.w3.org/1999/xlink" x="0px" y="0px"
	 viewBox="0 0 210 210" enable-background="new 0 0 210 210" xml:space="preserve">
<path d="M210,100.23v9.54c0,7.9-6.41,14.32-14.32,14.32h-71.59v71.59c0,7.9-6.41,14.32-14.32,14.32h-9.54
	c-7.9,0-14.32-6.41-14.32-14.32v-71.59H14.32c-7.9,0-14.32-6.41-14.32-14.32v-9.54c0-7.9,6.41-14.32,14.32-14.32h71.59V14.32
	C85.91,6.41,92.32,0,100.23,0h9.54c7.9,0,14.32,6.41,14.32,14.32v71.59h71.59C203.59,85.91,210,92.32,210,100.23z"/>
</svg>
