<?xml version="1.0" encoding="utf-8"?>
<!-- Generator: Adobe Illustrator 24.1.2, SVG Export Plug-In . SVG Version: 6.00 Build 0)  -->
<svg version="1.1" id="Layer_1" xmlns="http://www.w3.org/2000/svg" xmlns:xlink="http://www.w3.org/1999/xlink" x="0px" y="0px"
	 viewBox="0 0 210 210" enable-background="new 0 0 210 210" xml:space="preserve">
<path id="XMLID_95_" d="M79.07,129.98l11.98,12.93L26.4,207.55c-2.63,2.64-6.91,2.64-9.55,0L2.93,193.62
	c-2.64-2.64-2.64-6.92,0-9.56l53.79-53.79c2.32,0.54,4.7,0.89,7.14,0.89c0.89,0,1.78-0.04,2.67-0.11L79.07,129.98z M208.1,44.87
	c-2.52-2.52-6.61-2.52-9.13,0l-34.86,34.86c-3.3,3.3-8.64,3.3-11.94,0c-3.28-3.29-3.28-8.63,0-11.92l34.69-34.68
	c2.62-2.62,2.62-6.88,0-9.5c-2.63-2.62-6.88-2.62-9.5,0L142.68,58.3c-3.3,3.3-8.64,3.3-11.93,0c-3.29-3.29-3.29-8.63,0-11.92
	l34.85-34.86c2.53-2.53,2.53-6.62,0-9.15c-2.52-2.53-6.62-2.53-9.15,0l-39.21,39.22c-9.43,9.43-12.41,22.68-9.35,34.73l26.29,26.29
	c12.05,3.04,25.3,0.06,34.72-9.36l39.22-39.21C210.63,51.49,210.63,47.4,208.1,44.87z M17.62,5.91c-1.34-1.34-3.16-2.08-5.03-2.08
	c-0.4,0-0.8,0.03-1.19,0.1C9.14,4.31,7.19,5.77,6.19,7.85C-5.3,31.59-0.5,60,18.15,78.65L51.51,112c3.29,3.3,7.74,5.12,12.36,5.12
	c0.49,0,0.99-0.02,1.48-0.06l19.37-1.65l84.46,91.11c1.31,1.42,3.15,2.24,5.08,2.28c0.04,0,0.08,0,0.12,0c1.89,0,3.7-0.75,5.05-2.08
	l14.46-14.47c1.34-1.33,2.08-3.14,2.08-5.03s-0.75-3.7-2.08-5.03L17.62,5.91z"/>
</svg>
